<svg width="74" height="77" viewBox="0 0 74 77" fill="none" xmlns="http://www.w3.org/2000/svg">
<path d="M73.1083 51.1999H0.891704L0 37.7245L0.891704 24.2936L37.7267 23.288L73.1083 24.2936L74 37.7512L73.1083 51.1999Z" fill="white"/>
<path d="M65.9288 9.44418L64.4358 1.1356C54.985 6.80465 49.2565 11.5586 36.9994 0C22.578 13.5991 14.6303 3.83885 9.63805 0.704808L8.0712 9.44418C7.99732 9.84438 6.99861 15.5542 7.40879 23.0853C7.42917 23.548 7.46102 24.0208 7.49287 24.5052H18.8876C18.8035 23.6002 18.7513 22.717 18.7194 21.8656C18.657 20.456 18.657 19.1305 18.6876 17.921C21.0633 18.2677 23.9435 18.3836 27.2543 17.9733C31.6797 17.4163 34.8121 16.4489 36.9994 15.4382C39.1853 16.4477 42.3177 17.415 46.7444 17.9733C50.0667 18.3836 52.9469 18.2677 55.3328 17.921C55.3647 19.1203 55.3647 20.456 55.301 21.8656C55.2691 22.717 55.2067 23.6015 55.1226 24.5052H66.5071C66.539 24.0208 66.5696 23.548 66.5912 23.0853C67.0014 15.5542 66.0027 9.84438 65.9288 9.44418Z" fill="#FEE600"/>
<path d="M60.9467 22.4761C61.2728 15.6077 60.348 10.4549 60.348 10.4549C60.348 10.4549 55.7328 13.3684 47.4501 12.3373C39.1662 11.2961 37.0019 8.75084 37.0019 8.75084C37.0019 8.75084 34.8363 11.2961 26.5524 12.3373C18.2685 13.3684 13.6545 10.4549 13.6545 10.4549C13.6545 10.4549 12.7297 15.6077 13.0558 22.4761L10.6903 22.7285C10.3323 15.7135 11.2584 10.4026 11.331 10.0343L11.9514 6.57396C20.6137 11.853 30.1269 11.8747 37.128 4.53346C44.2031 12.3055 53.9265 11.5165 62.041 6.64788L62.6715 10.0343C62.7352 10.4026 63.6702 15.7237 63.3238 22.7285L60.948 22.4761H60.9467Z" fill="#FEE600"/>
<path d="M50.7189 51.0852C50.0348 52.2845 49.2679 53.4099 48.4476 54.4716C45.0731 58.8674 40.826 62.0231 37.0006 64.2217C33.174 62.0231 28.9269 58.8687 25.5537 54.4716C24.7333 53.4099 23.9665 52.2845 23.2837 51.0852H10.7119C10.8903 51.5377 11.0801 51.9901 11.2686 52.4426C11.3425 52.621 11.4151 52.7893 11.5004 52.9575C16.8825 65.0208 26.932 72.0039 34.4797 75.7484L37.0032 77L39.5254 75.7484C47.0731 72.0039 57.1226 65.0208 62.5047 52.9575C62.5887 52.7893 62.6626 52.621 62.7365 52.4426C62.925 51.9901 63.1148 51.5377 63.2932 51.0852H50.7189Z" fill="#FEE600"/>
<path d="M38.0516 72.7826L37.0006 73.309L35.9497 72.7826C29.2848 69.4701 20.5181 63.4748 15.3666 53.3781L18.2264 53.6827C23.5142 62.9905 32.0389 68.1969 37.0006 70.658C41.9623 68.1969 50.487 62.9905 55.7748 53.6827L58.6347 53.3781C53.4832 63.4748 44.7164 69.4701 38.0528 72.7826H38.0516Z" fill="#FEE600"/>
<path d="M18.0417 53.8471C23.3716 63.2301 31.9663 68.4773 36.9675 70.9588C41.9687 68.4773 50.5622 63.2301 55.8933 53.8471C56.3812 53.0097 56.8258 52.1405 57.2385 51.228H16.6965C17.1105 52.1393 17.5551 53.0085 18.0417 53.8471Z" fill="#1D1D1B"/>
<path d="M60.5021 10.3657C60.5021 10.3657 55.85 13.3021 47.4998 12.2634C39.1496 11.2132 36.9675 8.6476 36.9675 8.6476C36.9675 8.6476 34.7841 11.2132 26.4339 12.2634C18.0838 13.3021 13.4316 10.3657 13.4316 10.3657C13.4316 10.3657 12.4991 15.5606 12.8278 22.4838C12.8597 23.1516 13.3603 23.3721 13.4138 24.0718H61.4372C61.4907 23.3721 61.0741 23.1516 61.106 22.4838C61.4346 15.5606 60.5021 10.3657 60.5021 10.3657Z" fill="#1D1D1B"/>
<path d="M73.1096 51.0852V51.8104L58.6347 53.3781L55.7748 53.6827L48.4476 54.4716L37.0006 55.713L18.2264 53.6827L15.3666 53.3781L0.891704 51.8104V51.0852H73.1096Z" fill="#FEE600"/>
<path d="M73.1096 23.7901V24.5052H0.891704V23.7901L7.40879 23.0853L10.689 22.7285L15.4188 22.2238L37.0006 19.8889L58.5926 22.2238L60.9467 22.4761L63.3225 22.7285L66.5912 23.0853L73.1096 23.7901Z" fill="#FEE600"/>
<path d="M5.09545 41.8921L8.4903 28.3058H18.6748L16.9908 35.0989H10.2011L8.4903 41.8921H5.09545ZM10.6151 33.3873H14.01L14.866 29.9907H11.4711L10.6151 33.3873Z" fill="#1D1D1B"/>
<path d="M31.3434 28.3058L29.6594 33.3873H27.9486L29.6594 35.0989L27.9486 41.8921H24.5537L26.2645 35.0989H22.8697L21.1589 41.8921H17.764L21.1589 28.3058H31.3434ZM26.6785 33.3873L27.5346 29.9907H24.1397L23.2837 33.3873H26.6785Z" fill="#1D1D1B"/>
<path d="M32.7498 33.3873H36.1446L34.0198 41.8921H30.625L32.7498 33.3873Z" fill="#1D1D1B"/>
<path d="M57.3417 28.3058L53.9468 41.8921H50.552L53.5328 29.9907H50.138L47.1572 41.8921H43.7623L46.7431 29.9907H43.3483L40.3675 41.8921H36.9726L40.3675 28.3058H57.3417Z" fill="#1D1D1B"/>
<path d="M61.1225 35.0989L59.8257 40.1792H63.2486L64.0766 36.7826H67.4715L66.2014 41.8909H56.0169L59.4117 28.3045H69.5963L67.9122 35.0977H61.1225V35.0989ZM61.5365 33.3873H64.9314L65.7874 29.9907H62.3926L61.5365 33.3873Z" fill="#1D1D1B"/>
<path d="M36.5586 31.9573H33.1638L34.0198 28.5607H37.4146L36.5586 31.9573Z" fill="#FEE600"/>
<path d="M36.7573 32.2122H32.8377L33.8211 28.3058H37.7408L36.7573 32.2122ZM33.4911 31.7024H36.3599L37.0873 28.8156H34.2185L33.4911 31.7024Z" fill="#221F20"/>
<path d="M13.2418 44.6591L14.5437 46.0177L16.6163 44.6591H17.5054L16.6112 47.7855H15.722L16.3271 45.6723L14.2545 47.0399L12.9526 45.6723L12.3476 47.7855H11.4622L12.3565 44.6591H13.2418Z" fill="#1D1D1B"/>
<path d="M22.3474 47.0131C22.3206 47.1036 22.2722 47.1941 22.2009 47.2846C22.1296 47.3751 22.0468 47.4579 21.9538 47.5319C21.8608 47.6058 21.7614 47.667 21.6557 47.7141C21.5512 47.7613 21.4519 47.7842 21.3576 47.7842H18.6978C18.6048 47.7842 18.5182 47.7613 18.4392 47.7141C18.3602 47.667 18.2952 47.6071 18.2443 47.5319C18.1933 47.4579 18.1576 47.3751 18.1373 47.2846C18.1169 47.1941 18.1194 47.1036 18.1462 47.0131L18.6022 45.4302C18.629 45.3397 18.6774 45.2492 18.7462 45.1587C18.8162 45.0682 18.899 44.9854 18.9933 44.9115C19.0888 44.8375 19.1882 44.7764 19.2939 44.7292C19.3997 44.682 19.499 44.6591 19.592 44.6591H22.2518C22.3448 44.6591 22.4315 44.682 22.5104 44.7292C22.5894 44.7764 22.6544 44.8363 22.7053 44.9115C22.7563 44.9854 22.792 45.0682 22.8123 45.1587C22.8327 45.2492 22.8302 45.3397 22.8034 45.4302L22.3474 47.0131ZM21.8659 45.6099C21.8888 45.5334 21.8862 45.4761 21.857 45.434C21.8277 45.3932 21.7856 45.3728 21.7296 45.3728H19.7143C19.6557 45.3728 19.6009 45.3932 19.5474 45.434C19.4952 45.4748 19.457 45.5334 19.4341 45.6099L19.0837 46.8334C19.0608 46.9099 19.0646 46.9685 19.0952 47.0093C19.1258 47.0501 19.1704 47.0705 19.229 47.0705H21.2442C21.3003 47.0705 21.3525 47.0501 21.4047 47.0093C21.4557 46.9685 21.4926 46.9099 21.5168 46.8334L21.8671 45.6099H21.8659Z" fill="#1D1D1B"/>
<path d="M25.0989 47.7842L25.7919 45.3728H24.1359L24.3372 44.6578H28.5396L28.3384 45.3728H26.6823L25.9894 47.7842H25.0989Z" fill="#1D1D1B"/>
<path d="M33.3803 47.0131C33.3536 47.1036 33.3052 47.1941 33.2338 47.2846C33.1625 47.3751 33.0797 47.4579 32.9867 47.5319C32.8937 47.6058 32.7943 47.667 32.6886 47.7141C32.5842 47.7613 32.4848 47.7842 32.3905 47.7842H29.7307C29.6377 47.7842 29.5511 47.7613 29.4721 47.7141C29.3931 47.667 29.3282 47.6071 29.2772 47.5319C29.2262 47.4579 29.1906 47.3751 29.1702 47.2846C29.1498 47.1941 29.1524 47.1036 29.1791 47.0131L29.6352 45.4302C29.6619 45.3397 29.7103 45.2492 29.7791 45.1587C29.8492 45.0682 29.932 44.9854 30.0262 44.9115C30.1218 44.8375 30.2211 44.7764 30.3269 44.7292C30.4326 44.682 30.532 44.6591 30.625 44.6591H33.2848C33.3778 44.6591 33.4644 44.682 33.5434 44.7292C33.6224 44.7764 33.6873 44.8363 33.7383 44.9115C33.7892 44.9854 33.8249 45.0682 33.8453 45.1587C33.8657 45.2492 33.8631 45.3397 33.8364 45.4302L33.3803 47.0131ZM32.8988 45.6099C32.9217 45.5334 32.9192 45.4761 32.8899 45.434C32.8606 45.3932 32.8185 45.3728 32.7625 45.3728H30.7472C30.6886 45.3728 30.6339 45.3932 30.5804 45.434C30.5281 45.4748 30.4899 45.5334 30.467 45.6099L30.1167 46.8334C30.0938 46.9099 30.0976 46.9685 30.1281 47.0093C30.1587 47.0501 30.2033 47.0705 30.2619 47.0705H32.2772C32.3332 47.0705 32.3854 47.0501 32.4377 47.0093C32.4886 46.9685 32.5256 46.9099 32.5498 46.8334L32.9001 45.6099H32.8988Z" fill="#1D1D1B"/>
<path d="M37.5344 44.6591H40.7725C40.8655 44.6591 40.9522 44.682 41.0311 44.7292C41.1101 44.7764 41.1751 44.8363 41.226 44.9115C41.277 44.9854 41.3127 45.0682 41.333 45.1587C41.3534 45.2492 41.3509 45.3397 41.3241 45.4302L41.1624 45.991C41.1356 46.0815 41.0872 46.172 41.0159 46.2624C40.9445 46.3529 40.8617 46.4358 40.7687 46.5097C40.6757 46.5836 40.5764 46.6448 40.4706 46.692C40.3649 46.7391 40.2656 46.7621 40.1726 46.7621H37.8197L37.5267 47.7829H36.6414L37.5357 44.6566L37.5344 44.6591ZM40.3777 45.4353C40.3484 45.3945 40.3063 45.3741 40.2503 45.3741H38.2172L38.0248 46.0496H40.0579C40.114 46.0496 40.1662 46.0292 40.2184 45.9884C40.2694 45.9476 40.3063 45.889 40.3305 45.8125L40.3878 45.6112C40.4108 45.5347 40.4082 45.4773 40.3789 45.4353H40.3777Z" fill="#1D1D1B"/>
<path d="M43.4018 45.8648H46.4858L46.2795 46.5798H43.1954L43.1203 46.8347C43.0974 46.9112 43.1012 46.9698 43.1317 47.0106C43.1623 47.0514 43.2069 47.0718 43.2655 47.0718H46.1483L45.9419 47.7868H42.7343C42.6413 47.7868 42.5547 47.7638 42.4757 47.7167C42.3967 47.6695 42.3318 47.6096 42.2808 47.5344C42.2298 47.4605 42.1942 47.3776 42.1738 47.2872C42.1534 47.1967 42.156 47.1062 42.1827 47.0157L42.8579 44.6617H46.8361L46.6349 45.3767H43.5406L43.4005 45.8673L43.4018 45.8648Z" fill="#1D1D1B"/>
<path d="M48.7062 45.522L48.3087 46.9214C48.2909 46.9889 48.296 47.0412 48.3215 47.0794C48.3482 47.1177 48.3852 47.1368 48.4348 47.1368H51.0552L50.8705 47.7855H49.7877L49.7482 47.9308C49.724 48.0124 49.6794 48.0952 49.6119 48.178C49.5444 48.2609 49.4679 48.3361 49.3813 48.4036C49.2947 48.4712 49.2043 48.526 49.1074 48.5681C49.0106 48.6101 48.9202 48.6318 48.8361 48.6318H48.2922L48.4769 47.983H48.8756C48.9253 47.983 48.9724 47.9652 49.0183 47.9308C49.0641 47.8951 49.0972 47.8479 49.1215 47.7855H47.9559C47.8718 47.7855 47.7928 47.7638 47.7215 47.7218C47.6501 47.6797 47.5903 47.6249 47.5419 47.5574C47.4935 47.4898 47.4616 47.4146 47.445 47.3318C47.4285 47.2489 47.4323 47.1661 47.4565 47.0845L47.9457 45.3614C47.9686 45.2798 48.0132 45.197 48.0769 45.1141C48.1418 45.0313 48.217 44.9561 48.3024 44.8885C48.389 44.821 48.4794 44.7662 48.5762 44.7241C48.673 44.682 48.7635 44.6604 48.8476 44.6604H51.7622L51.5736 45.3091H48.9533C48.9036 45.3091 48.8552 45.3282 48.8068 45.3665C48.7584 45.4047 48.724 45.457 48.7036 45.5245L48.7062 45.522Z" fill="#1D1D1B"/>
<path d="M53.2348 47.2234L53.073 47.7842H52.1876L52.5685 46.4511L53.6195 44.6578H56.7443L56.771 46.4511L56.3901 47.7842H55.5048L55.6666 47.2234H53.2348ZM55.8678 46.5135L55.8462 45.3741H54.1201L53.436 46.5135H55.8678Z" fill="#1D1D1B"/>
<path d="M61.1034 46.8156C61.1263 46.7391 61.1238 46.6818 61.0945 46.6397C61.0652 46.5989 61.0232 46.5785 60.9671 46.5785H58.6232C58.5302 46.5785 58.4538 46.5556 58.3952 46.5084C58.3366 46.4613 58.2945 46.4014 58.2678 46.3262C58.241 46.2523 58.2283 46.1694 58.2283 46.0789C58.2283 45.9884 58.241 45.8979 58.2678 45.8074L58.3773 45.4302C58.4041 45.3397 58.4512 45.2492 58.5213 45.1587C58.5913 45.0682 58.6742 44.9854 58.7684 44.9115C58.8627 44.8375 58.9633 44.7764 59.069 44.7292C59.1748 44.682 59.2741 44.6591 59.3671 44.6591H62.6053L62.404 45.3741H59.4894C59.4308 45.3741 59.3761 45.3945 59.3226 45.4353C59.2703 45.4761 59.2321 45.5347 59.2092 45.6112L59.2041 45.629C59.1811 45.7055 59.185 45.7641 59.2155 45.8049C59.2461 45.8457 59.2907 45.8661 59.3493 45.8661H61.6894C61.7824 45.8661 61.8588 45.889 61.9174 45.9362C61.976 45.9833 62.018 46.0432 62.0448 46.1184C62.0715 46.1924 62.083 46.2752 62.0817 46.3657C62.0805 46.4562 62.0664 46.5467 62.0397 46.6372L61.9301 47.0144C61.9034 47.1049 61.855 47.1954 61.7837 47.2859C61.7123 47.3764 61.6295 47.4592 61.5365 47.5331C61.4435 47.6071 61.3442 47.6682 61.2384 47.7154C61.1327 47.7626 61.0334 47.7855 60.9404 47.7855H57.7022L57.9086 47.0705H60.827C60.8818 47.0705 60.9353 47.0501 60.9862 47.0093C61.0372 46.9685 61.0741 46.9099 61.0983 46.8334L61.1021 46.8156H61.1034Z" fill="#1D1D1B"/>
<path fill-rule="evenodd" clip-rule="evenodd" d="M37.0006 11.7804L37.7917 14.1918L40.3662 14.1879L38.2796 15.6753L39.0796 18.0841L37.0006 16.5891L34.9217 18.0841L35.7204 15.6753L33.6351 14.1879L36.2096 14.1918L37.0006 11.7804Z" fill="#FEE600"/>
<path fill-rule="evenodd" clip-rule="evenodd" d="M44.7903 13.956L45.3113 15.5364L46.9954 15.5313L45.6285 16.5076L46.1534 18.0841L44.7903 17.1053L43.4311 18.0841L43.9547 16.5076L42.5878 15.5313L44.2731 15.5364L44.7903 13.956Z" fill="#FEE600"/>
<path fill-rule="evenodd" clip-rule="evenodd" d="M29.2071 13.956L29.7256 15.5364L31.4122 15.5313L30.0453 16.5076L30.5702 18.0841L29.2071 17.1053L27.8454 18.0841L28.3702 16.5076L27.0046 15.5313L28.69 15.5364L29.2071 13.956Z" fill="#FEE600"/>
<path fill-rule="evenodd" clip-rule="evenodd" d="M28.932 66.3947C29.104 67.0231 28.6759 66.7988 27.9282 66.9198C26.8378 67.0944 24.1499 66.7108 23.5728 68.3932C23.4289 68.8112 20.6124 72.2142 19.9054 72.3021C19.513 72.3518 19.4965 73.0413 17.4749 72.8667C17.2774 72.8502 13.987 73.4861 14.3271 72.102C14.6418 70.8199 18.7232 73.1229 20.0506 67.7228C20.5398 65.7333 19.322 63.0185 17.3768 62.5215C14.5552 61.7988 16.0227 62.1276 13.6533 62.5087C13.3781 62.5533 11.182 62.7585 11.1909 62.5686C11.2571 61.0749 13.88 60.7129 15.1526 59.9686C17.3959 58.6571 17.48 60.2299 19.1322 59.9635C22.676 59.3938 23.3028 64.3721 24.5728 62.5801C24.6594 62.4565 25.7308 62.4284 26.2327 62.0971C26.583 61.8664 27.3779 62.2882 28.1524 61.7236C28.3626 61.5707 33.7931 60.9793 35.2121 60.481C37.0962 59.8208 39.3624 60.0362 41.2464 59.116C42.1318 58.6839 46.4018 58.2518 46.4018 57.6936C46.4018 57.1647 48.3036 56.5746 46.817 57.2794C45.8311 57.7471 47.6743 57.9103 48.1164 57.6184C49.0132 57.027 53.2055 57.3393 53.9991 55.8749C54.0067 55.8608 54.8284 54.8795 54.9927 54.5634C55.8844 52.8402 57.8054 51.8678 59.7404 52.0411C60.5633 52.115 62.3684 52.1087 62.8664 52.7625C63.2435 53.257 62.5365 52.7344 61.869 53.1308C59.199 54.7125 57.6525 53.424 57.4678 57.6413C57.3659 59.9699 57.9582 59.5174 59.1595 61.0927C60.2435 62.5151 66.5785 59.4996 63.0766 62.4463C62.1531 63.2225 58.8347 63.9094 57.6003 63.03C56.7328 62.4106 54.8322 60.9742 53.8844 61.6013C53.8156 61.6471 52.5086 61.3986 52.073 61.6854C52.0233 61.7185 50.7163 61.6854 50.1596 62.0231C48.7571 62.872 43.9088 63.615 41.9127 64.8181C39.5891 66.2188 32.1969 66.5693 29.188 66.8077C28.8033 66.8383 29.0454 66.8077 28.932 66.3935V66.3947Z" fill="#D4D4D4"/>
<path fill-rule="evenodd" clip-rule="evenodd" d="M28.932 66.3947C29.104 67.0231 28.6759 66.7988 27.9282 66.9198C26.8378 67.0944 24.1499 66.7108 23.5728 68.3932C23.4289 68.8112 20.6124 72.2142 19.9054 72.3021C19.513 72.3518 19.4965 73.0413 17.4749 72.8667C17.2774 72.8502 13.987 73.4861 14.3271 72.102C14.5654 71.1334 16.9538 72.2104 18.6799 70.4643C20.006 70.0857 20.8799 67.775 22.1436 67.3328C23.0799 67.0052 23.8289 65.5561 24.9512 65.2757C29.2543 64.1975 34.43 63.3359 38.3828 62.2092C44.3687 60.5014 48.4998 59.8832 54.4857 58.1766C55.2513 57.1481 55.5723 55.6556 56.05 55.0133C56.264 54.7265 56.6105 54.0599 56.9532 53.5998C57.129 53.3641 58.4652 52.9065 58.8818 52.4885C59.055 52.3139 59.2194 52.1609 59.3748 52.0233C59.4958 52.0258 59.6181 52.0322 59.7391 52.0424C60.562 52.1163 62.3671 52.1099 62.8652 52.7638C63.2422 53.2583 62.5352 52.7357 61.8677 53.1321C59.1977 54.7138 57.6512 53.4252 57.4665 57.6426C57.3646 59.9712 57.957 59.5187 59.1582 61.094C60.2423 62.5164 66.5772 59.5009 63.0754 62.4475C62.1518 63.2237 58.8334 63.9107 57.599 63.0313C56.7315 62.4119 54.8309 60.9755 53.8832 61.6025C53.8144 61.6484 52.5074 61.3999 52.0717 61.6867C52.022 61.7198 50.7151 61.6867 50.1584 62.0244C48.7558 62.8732 43.9075 63.6163 41.9114 64.8194C39.5879 66.2201 32.1956 66.5706 29.1868 66.809C28.8021 66.8395 29.0441 66.809 28.9307 66.3947H28.932Z" fill="#B2B2B2"/>
<path fill-rule="evenodd" clip-rule="evenodd" d="M26.6798 61.586C28.0543 61.3502 27.0594 58.9069 27.8033 57.9345C28.8122 56.6154 28.4046 56.4752 30.3511 55.9411C31.0033 55.7627 34.5561 53.164 35.6554 52.867C37.8134 52.2858 37.4567 49.2308 39.6681 51.4599C40.1178 51.9137 42.7967 50.1778 43.6286 51.1591C44.9266 52.6898 45.1712 53.3641 46.1164 55.0528C46.8565 56.3732 46.6986 61.7733 47.2756 62.6846C47.5177 63.067 48.9508 62.0244 49.1826 64.0394C49.3253 65.2757 49.4195 69.2548 47.9597 69.697C47.8476 69.7314 42.8732 69.7875 42.7279 69.6435C42.4069 69.3197 37.7382 67.6374 37.193 67.9981C37.1726 68.0121 33.7357 68.2517 33.0593 68.5002C32.695 68.6341 30.5027 68.3486 30.3014 68.1714C30.1141 68.0083 29.0428 65.0221 28.8364 64.6983C28.6072 64.3364 28.4517 61.6752 27.3613 62.0767C27.0823 62.1799 26.918 61.5439 26.6772 61.5847L26.6798 61.586Z" fill="#FEE600"/>
<path fill-rule="evenodd" clip-rule="evenodd" d="M34.3867 64.6932C34.4198 65.3369 34.8542 66.3068 35.7344 65.8556C36.4121 65.5077 35.6988 63.3525 35.7675 62.5482C35.8134 62.0129 35.3599 62.0244 35.5395 60.9436C35.6312 60.3892 35.3599 60.017 35.7752 59.1083C35.7777 59.1032 36.0376 57.9714 35.9561 57.8516C35.7064 57.4782 35.6529 55.3982 34.6733 56.7632C34.4555 57.0678 32.3447 56.8792 32.2415 57.9893C32.1651 58.8126 33.0084 58.9273 33.0478 60.2069C33.0631 60.6951 33.2937 60.7792 33.0529 61.5375C32.9141 61.976 33.9714 63.1409 34.002 64.0318C34.0071 64.163 34.3854 64.6729 34.3867 64.692V64.6932Z" fill="#FFF9C1"/>
<path fill-rule="evenodd" clip-rule="evenodd" d="M38.9624 63.3792C39.0375 63.2428 38.9293 63.9515 39.8121 63.991C41.1917 64.0547 40.2528 63.2046 40.519 62.3915C40.6439 62.0104 40.3127 60.9857 40.277 60.3204C40.2248 59.3301 40.5509 59.2523 40.2554 58.4175C40.0541 57.8478 40.8694 55.9297 40.4324 55.4619C39.3496 54.3021 39.6222 56.0533 38.4083 55.402C37.4758 54.9011 37.4414 55.8366 37.249 56.0061C36.5242 56.6472 37.2949 56.8741 37.1981 57.9982C37.1459 58.6125 38.1751 59.743 38.1828 60.4733C38.1866 60.8761 38.8847 61.693 38.7968 62.7687C38.7904 62.8401 38.9331 63.4289 38.9611 63.3779L38.9624 63.3792Z" fill="#FFF9C1"/>
<path fill-rule="evenodd" clip-rule="evenodd" d="M43.2935 62.6553C43.3687 61.8893 46.0629 62.1531 45.5011 60.5613C45.1266 59.4996 45.5903 58.466 45.0693 57.3533C44.5572 56.261 45.254 55.1726 43.6235 56.5414C43.3687 56.7556 42.9203 55.9564 42.4859 57.3444C42.3369 57.821 42.0451 57.9676 42.3725 58.8419C42.7916 59.961 42.9254 59.8603 42.8082 61.2202C42.7954 61.3642 43.2833 62.7496 43.2923 62.654L43.2935 62.6553Z" fill="#FFF9C1"/>
<path fill-rule="evenodd" clip-rule="evenodd" d="M32.1307 67.1212C32.3319 66.6407 32.6619 67.0027 32.1345 65.8773C31.4861 64.4931 31.3065 64.7532 31.2517 63.0657C31.2275 62.3074 31.2937 60.992 31.0517 60.3471C31.0491 60.342 31.2007 58.9783 30.3664 59.5863C30.0148 59.8424 29.7753 60.4593 29.653 60.8697C29.5409 61.2457 29.0161 61.3897 29.3613 62.366C29.4963 62.7471 29.4938 64.3007 29.7613 64.6792C30.5638 65.8148 30.3116 65.4847 30.7472 66.707C31.0326 67.5074 32.2504 66.8332 32.1307 67.1199V67.1212Z" fill="#FFF9C1"/>
<path fill-rule="evenodd" clip-rule="evenodd" d="M47.7661 64.3134C47.3954 64.3326 46.2387 64.7939 46.2234 65.1521C46.1941 65.8097 45.9291 68.499 46.2795 68.8737C47.1049 69.7569 47.0794 67.7623 47.0833 67.4029C47.0947 66.5426 48.7393 66.8077 48.0756 64.929C48.0692 64.9112 47.9775 64.3032 47.7673 64.3134H47.7661Z" fill="#FFF9C1"/>
<path fill-rule="evenodd" clip-rule="evenodd" d="M43.0757 66.0697C42.6681 66.0761 42.3674 67.1301 42.5432 67.7534C42.6502 68.1332 42.4133 68.9756 43.3712 69.019C43.7126 69.0343 44.4222 68.0108 44.1776 67.2742C44.0145 66.7796 43.9648 65.2094 43.0757 66.0697Z" fill="#FFF9C1"/>
<path fill-rule="evenodd" clip-rule="evenodd" d="M42.3891 53.531L43.184 53.5591C43.3827 53.2927 43.3636 53.4303 43.4477 53.0773C42.9139 53.0391 42.5904 53.1423 42.2069 53.2965L42.3483 53.4953C42.356 53.503 42.3763 53.5196 42.3891 53.5323V53.531ZM47.7966 68.6047C48.0106 68.541 47.8833 68.6124 48.0259 68.4786C48.1762 68.3384 48.2438 68.1191 48.231 67.8808C48.2055 67.4271 48.1877 67.264 47.9686 67.0957C47.8845 67.1977 47.9151 67.0983 47.8578 67.2805C47.8399 67.3379 47.8374 67.4309 47.8349 67.4934L47.7966 68.6035V68.6047ZM42.0375 61.7032C42.0324 61.6382 42.0133 61.5643 41.9394 61.4815L41.9318 61.2151C41.9037 60.9245 41.7993 60.4274 41.7063 60.1764C41.5496 59.7583 41.5789 59.5162 41.5598 59.0459C41.5267 58.2289 41.4171 57.4196 41.4706 56.5733C41.2082 56.6663 41.3904 56.4484 41.2604 56.8155L41.1815 57.6719C41.1573 58.0505 41.1496 58.4354 41.1318 58.8152C41.0566 60.3956 41.1178 59.6882 41.2515 60.3535C41.2808 60.5026 41.2745 60.741 41.2999 60.8952C41.3955 61.484 41.4834 60.8149 41.4617 61.8383C41.4477 62.5266 41.8069 63.081 41.8999 63.6367C41.9789 64.1031 42.1407 64.0343 41.9305 64.6079C40.5968 64.6933 41.0999 65.421 39.2554 65.1444C38.3216 65.0042 37.8312 64.2931 37.7611 63.2658L37.8019 63.1269C37.6529 63.0109 37.7777 63.1447 37.6656 62.9994C37.5166 62.8082 37.351 62.2678 37.3611 62.0091C37.3752 61.6446 37.3484 61.6357 37.2567 61.3183C37.1471 60.9398 37.2146 60.9462 36.8134 60.9079C36.7866 60.9347 36.5803 60.9079 36.5994 61.4623C36.5994 61.4649 36.6312 61.7415 36.6376 61.7771C36.6567 61.8396 36.6631 61.8192 36.8643 62.4399L36.8949 62.5584C37.0108 62.9879 36.9854 63.1026 37.2388 63.4608C37.7382 65.1648 37.8223 65.9614 36.221 66.5897C35.6784 66.8026 35.779 66.7835 35.1586 66.6904C34.8911 66.619 34.6758 66.5387 34.3969 66.4597C33.8988 66.3183 34.1446 66.2533 33.9497 65.9882C33.8911 65.8034 33.8173 65.7906 33.7281 65.4299C33.672 65.2031 33.6109 65.0794 33.6478 64.8169C33.6351 64.8054 33.6236 64.7837 33.6173 64.7748L33.495 64.6091C33.2975 64.3491 33.3867 64.4511 33.3319 64.1873C33.2873 63.9744 33.3115 64.0789 33.2593 63.9591C33.0211 63.4111 33.2224 63.4022 32.9281 63.0555C33.0275 62.6094 32.8682 62.589 32.8045 62.2755C32.765 62.0805 32.7905 62.0384 32.7294 61.8447L32.3561 60.755C32.2848 60.56 32.2873 60.6314 32.2058 60.4147L32.0823 60.1075C31.9459 60.3178 31.9969 60.3765 32.0772 61.0137C32.2287 62.2079 31.9179 62.3787 32.188 63.8827C32.216 64.0369 32.2096 64.1822 32.2733 64.3326C32.5816 65.0641 32.337 64.6729 32.4835 65.0871C32.5523 65.2821 32.5459 65.147 32.6173 65.4414C32.7434 65.9614 32.9625 66.4279 33.2211 66.8051C33.3918 66.9683 33.4109 67.1301 33.2033 67.3659C33.2033 67.3659 32.9791 67.5609 32.9778 67.5609C32.7447 67.7215 33.0542 67.6042 32.7026 67.6909C32.2657 67.7164 32.2542 67.8694 31.8045 67.9025C31.2491 67.9445 31.2976 68.1039 30.8199 68.0733C30.7065 67.9089 30.5982 67.6438 30.56 67.5265L30.3676 67.2002L30.2517 67.1735L28.6568 63.5169C28.4441 63.0083 28.2912 63.1409 28.2084 62.2857C28.1689 61.8753 28.281 61.6382 28.0721 61.4024C27.8734 61.9747 28.2135 61.8358 27.3881 61.9989C27.1002 62.0563 27.2849 62.1366 27.1893 62.0053C26.9957 61.7364 27.5842 59.8768 27.6811 58.9872C27.7346 58.4889 27.7893 58.4762 27.9295 58.0772L28.0033 58.0683C28.0912 57.7854 28.7536 56.9021 29.0084 56.6651L29.8594 57.0704C30.5205 57.2411 30.081 56.3617 30.6313 56.2279C31.4925 56.2508 32.2733 55.3625 32.7498 54.7966L32.9803 54.5277C32.9905 54.5175 33.0045 54.5022 33.0147 54.4907C33.2517 54.2499 33.3001 54.0676 33.8644 54.5557L34.1548 54.8247C34.2223 54.8986 34.1956 54.831 34.2695 54.9687L34.4491 54.9585C34.5013 54.5596 34.6784 53.9962 34.8338 53.6049C35.7803 53.5845 35.5854 53.4597 36.1433 52.8899C36.4045 52.6236 37.0656 52.138 37.2159 51.7492C37.2516 51.6804 37.342 51.6027 37.4325 51.4905C37.8579 50.9616 37.9344 51.0865 38.4235 51.7314C39.1586 52.7013 38.835 52.3202 39.6885 51.9812C40.1636 51.7926 40.5203 52.1953 41.6515 51.9213C42.077 51.8181 42.1279 51.7684 42.4197 51.5045C43.1101 50.8826 43.3661 51.4408 43.7432 51.9009C43.9954 52.2093 43.8999 52.3088 44.0171 52.7434C44.1699 53.3067 44.1241 53.8305 44.5215 53.4724C44.6859 53.3246 44.4425 53.4265 44.719 53.308C45.0616 53.6011 45.4476 54.6093 45.6718 55.0961C45.6782 55.1114 45.6871 55.1305 45.6935 55.1458C45.6999 55.1611 45.7088 55.1802 45.7164 55.1943C45.7228 55.2083 45.733 55.2274 45.7393 55.2414C45.7457 55.2554 45.8018 55.3625 45.8069 55.3753C46.4731 57.0614 46.0922 57.0245 46.3113 58.0632C46.3725 58.3538 46.4285 58.6163 46.3368 58.9592C46.403 59.0586 46.3712 58.9732 46.4068 59.1363C46.4285 59.2319 46.4234 59.2447 46.4336 59.3403L46.6578 61.521C46.6845 62.1697 46.5852 61.832 46.4209 62.2156C45.412 62.6081 44.6425 62.7573 43.5598 63.1817C43.5419 63.1893 43.3929 63.2581 43.3623 63.276C43.2477 63.3448 43.2999 63.3104 43.2247 63.3818C43.0222 63.4277 42.9865 63.4901 42.7725 63.5398C42.5789 63.5322 42.5623 63.4939 42.5279 63.2747C42.1789 62.993 42.2617 62.4361 42.2158 62.1124C42.2158 62.1085 42.1547 61.8778 42.1521 61.8702C42.0528 61.6421 42.2477 61.8995 42.0362 61.6969L42.0375 61.7032ZM10.9132 62.6005C10.8406 62.7267 10.796 62.7738 10.7476 62.8427C10.6329 62.9497 10.4508 63.1893 10.4521 63.383C10.9132 63.4417 12.21 62.9688 12.3985 62.9523C12.7488 62.9217 13.0775 62.9319 13.4278 62.8885C13.7692 62.8465 13.9832 62.7127 14.4494 62.6731C14.5169 62.547 14.5297 62.4577 14.5934 62.3303C15.0201 62.3532 15.4418 62.3405 15.8596 62.3685C16.4469 62.4068 16.6188 62.7305 16.8061 62.0423C16.6749 61.8243 16.2545 61.7249 15.8889 61.73L15.238 61.7822C14.9475 62.157 14.9182 61.9314 14.5526 62.0563C14.2189 62.171 14.5335 62.301 13.9794 62.2691C12.5386 62.1863 12.4291 62.6081 12.0584 62.64C11.8342 62.6591 11.7183 62.6145 11.5858 62.5444C11.6979 62.0932 12.0851 62.0512 12.1297 62.0346C12.3998 61.9314 12.5042 61.8039 12.7004 61.5885C12.7361 61.5605 12.8304 61.4929 12.9233 61.4292C12.9233 61.4292 13.0482 61.3464 13.052 61.3438C13.2469 61.2444 13.0112 61.3018 13.2558 61.2737C13.3119 60.9984 13.5794 60.95 13.8163 60.7741C13.959 60.6683 14.0966 60.5065 14.2507 60.4325C18.7691 58.2977 22.5665 61.8702 22.6136 61.8511C22.7359 61.5541 22.5079 61.6663 22.6136 61.3693C22.499 61.3693 19.8417 57.3864 14.1845 60.0132C13.5514 60.3076 12.5616 60.7537 12.2406 61.1794C12.1692 61.2737 12.2138 61.2036 12.1654 61.2992L12.0291 61.2928C11.9616 61.6382 11.5246 61.6293 11.2979 62.0231C11.2189 62.157 11.2635 62.0818 11.1985 62.1761C11.1909 62.1863 11.1094 62.2997 11.1017 62.3099C10.9782 62.4845 11.0062 62.4272 10.9132 62.5992V62.6005ZM28.6543 59.1453C28.9689 59.1465 28.9727 59.1058 29.2721 58.9171C29.3817 58.8483 29.2823 58.8993 29.3957 58.8394C29.5052 58.782 29.4899 58.791 29.6479 58.7451C29.9498 58.6559 30.4326 58.6508 30.6199 58.4061C30.1918 58.0798 29.0326 58.5513 28.9511 58.6406L28.6556 59.1453H28.6543ZM33.5294 55.8596C33.2224 56.2432 33.3154 55.8264 32.6721 56.4305C32.4784 56.6115 32.5396 56.4739 32.444 56.6995C32.6822 56.8511 32.8542 56.7224 33.3459 56.4242L34.2223 55.987C34.3829 55.8557 34.3701 55.8991 34.4325 55.7359C34.0809 55.7028 34.23 55.7334 33.9803 55.7997C33.8147 55.8443 33.7268 55.8379 33.5281 55.8596H33.5294ZM36.821 60.7537C37.1548 60.351 36.7408 59.562 36.6045 59.0025C36.5497 58.7782 36.5841 58.5526 36.5128 58.3105L36.4452 58.4111C36.4083 58.5016 36.407 58.4711 36.3828 58.596C36.3115 58.963 36.4287 59.3263 36.472 59.5633C36.6401 60.4848 36.286 60.6581 36.821 60.7537ZM22.6111 61.8523C22.5767 61.5656 22.5334 61.6433 22.6111 61.3706C22.8366 61.34 22.9576 61.5822 23.2518 61.9887C23.4709 62.2921 23.6047 62.459 23.583 63.0185C23.5677 63.0071 23.5474 62.9676 23.5385 62.9816L23.2034 62.8427C23.062 62.5138 22.5066 62.1723 22.6111 61.8523ZM64.1148 61.9658C64.2524 61.8855 64.618 61.4228 64.7237 61.2444L64.7849 61.1335C64.8639 60.9232 64.8715 60.8812 64.8027 60.6849C64.3186 60.4797 63.604 61.015 63.4409 61.0341L62.8562 61.0711L61.6142 61.3438C60.9072 61.4305 60.8894 61.4292 60.2066 61.3043C59.7646 61.224 59.4232 61.0124 59.1226 60.7779C58.7455 60.4848 58.7315 60.365 58.5442 60.2146C58.3429 60.0527 58.478 60.1216 58.1863 59.9979C58.1863 60.5205 58.3022 60.3268 58.4143 60.7168C58.5022 60.8965 59.0092 61.1386 59.2283 61.2278C59.5302 61.3515 59.4614 61.3425 59.692 61.47C59.8232 61.5426 59.948 61.5834 60.0729 61.6523C60.7811 61.8039 61.4193 61.8817 62.0907 61.6918C62.3849 61.6076 62.669 61.6548 62.9671 61.5758C63.3581 61.4713 63.3569 61.3209 63.776 61.5031C63.6702 61.8192 63.5365 61.9072 63.2626 62.0486L62.5569 62.4909L62.3569 62.6145C62.2206 62.7904 62.3773 62.6273 62.2155 62.7381C61.9735 62.9038 62.4231 62.6285 62.1161 62.7955C61.4244 63.1715 59.4474 63.0083 58.4219 63.1141C57.6512 63.1141 55.3774 61.3489 55.1991 61.4267C55.1761 61.7912 56.6411 63.3958 58.4831 63.8572C58.641 63.9043 60.5276 63.8024 60.5849 63.7756C60.8537 63.6507 60.7149 63.6278 61.1314 63.5487C61.8614 63.4098 61.7047 63.7068 62.0741 63.4251C62.4601 63.1332 62.4117 63.3843 62.5391 62.8847C63.0601 62.9293 63.0244 62.8006 63.3263 62.496C63.632 62.1875 63.3696 62.4412 63.7823 62.3379C64.0244 62.2768 64.0511 62.1901 64.1123 61.9632L64.1148 61.9658ZM37.3497 53.4902C37.2427 53.5718 37.072 53.6075 36.9854 54.1772C37.4631 54.1759 37.1917 54.1797 37.4987 54.0268C37.9879 53.9325 37.7853 53.7936 38.3127 53.7821C38.6439 53.7757 38.956 53.8254 39.2987 53.8114C39.4197 53.5068 39.5293 53.4189 39.6082 53.1474C39.0223 52.9741 38.9114 53.0556 38.3522 53.0174C37.7433 52.9753 37.5255 52.7994 37.4006 53.4456L37.3497 53.4902ZM48.9801 62.264C49.4781 62.2334 53.0258 61.354 53.38 61.275C53.4984 61.2482 54.0895 61.1335 54.1341 61.1297C54.4144 61.1412 54.6679 61.0749 54.9035 61.1718C55.4296 61.3871 55.3366 61.4611 55.3545 61.5439C55.0577 61.6994 54.4093 61.3451 53.4398 61.6765C53.3596 61.7032 49.3635 62.835 48.8081 62.5967C48.8692 62.4004 48.8183 62.4896 48.9801 62.264ZM43.6731 64.4817C44.8094 63.7832 45.7279 63.5959 47.7342 63.0529C48.2361 62.9918 48.4578 63.0351 48.7597 63.4608C49.0832 63.9158 48.7151 65.5994 48.9049 66.8C48.9495 67.0855 48.989 68.4875 48.7087 68.8036C48.5125 69.0253 48.1877 69.4217 47.9469 69.4714L47.9622 69.6078C47.3903 69.5199 47.2132 69.7263 46.6629 69.72C46.2591 69.7149 45.668 69.6409 45.2527 69.5976C45.2706 68.7564 45.5712 68.9119 45.5113 67.264C45.5049 67.0753 45.4578 66.786 45.4451 66.5375L45.3852 66.3221L45.3788 66.1781C45.2999 66.0404 45.161 65.8824 45.0438 65.7689C44.9368 65.6657 44.7534 65.5357 44.6018 65.4962C44.5546 65.5625 44.5317 65.4172 44.5496 65.7039C44.7776 65.8237 44.0273 65.8862 44.2706 66.0417C44.4731 66.2048 44.3279 65.8951 44.4566 66.2966L44.4502 67.2028C44.4782 67.4857 44.5406 67.5494 44.5266 67.8528L44.398 68.3779C44.3941 68.3677 44.3801 68.4136 44.3687 68.4301C44.3088 68.5678 44.2362 68.708 44.1929 68.9603L44.6629 69.3822C44.6604 69.372 44.6464 69.4166 44.6362 69.4319C44.2948 69.6524 42.7776 69.6103 42.2349 69.4918C42.2107 69.2917 42.1636 69.3669 42.0834 69.0674C42.0006 68.7564 42.049 68.8584 41.9318 68.606C41.7929 68.3078 41.7139 68.035 41.6693 67.7546C41.5381 65.8913 41.4655 66.0098 42.3521 65.2324C42.57 65.0412 42.5241 65.0514 42.7993 64.9647L43.4693 64.6792C43.6515 64.5747 43.5891 64.6015 43.6731 64.4881V64.4817ZM18.4175 63.6137C17.0583 62.4832 16.7182 62.5176 16.8035 62.0435L18.5041 62.6196C18.8621 62.8121 19.5181 64.1516 19.7258 64.4549C19.9296 64.7532 19.7487 64.5454 19.9156 64.6155C19.8723 65.0386 20.1296 65.045 20.099 65.7243C20.0697 66.3718 20.1831 68.6111 19.9385 69.0534L19.5704 69.423C19.5704 69.423 19.5207 69.5747 19.5105 69.5976C19.4876 69.6154 19.5271 69.5696 19.4226 69.6792C18.0685 71.1041 18.6608 71.2417 16.629 71.647L15.5093 71.9644C15.2201 72.0956 14.6673 72.1313 14.4584 72.413C14.6736 72.5239 14.9985 72.492 15.2558 72.5328C15.5042 72.5723 16.9691 73.049 17.6685 72.8808C17.7984 72.8489 18.1933 72.6858 18.3169 72.6233L20.8238 71.5349C21.6251 71.2354 21.6136 70.8976 22.1792 70.1252L23.7881 67.7891C23.8926 67.3595 23.913 67.3646 24.2977 67.2461L25.8645 66.9351C26.2441 66.8943 26.2454 66.7847 26.462 66.758C27.4059 66.758 27.6645 66.3718 28.9269 66.3973C29.3282 65.8939 29.2492 66.0621 28.9919 65.5268C28.8314 65.1929 28.6938 64.9074 28.5626 64.5607C28.2033 63.6137 28.3358 63.4812 28.0785 62.9586C27.9473 62.6923 28.0275 62.5686 27.9269 62.3545C27.0263 62.1327 27.076 62.5023 26.8021 62.4577C26.3855 62.5215 23.8888 63.3091 23.5779 63.0211C23.6238 62.9357 23.5219 62.7611 23.5716 62.719C23.7652 62.5584 26.4314 62.1531 26.5639 61.9683C26.6581 61.8014 26.6989 61.4139 26.7397 61.1998C26.8645 60.5358 26.9817 60.6161 27.0085 60.4631C26.9753 59.9431 26.8645 60.0119 27.0569 59.4499L27.0836 59.4333C27.0378 59.1733 27.1728 58.457 27.2072 58.1053C27.2683 57.4693 27.4237 57.6694 27.704 57.2144L27.6556 57.2386C28.0212 57.1876 28.3944 56.6052 28.8556 56.1489L29.5855 55.3549C29.6759 55.3893 29.6479 55.4122 29.6224 55.3255C30.9167 55.1356 30.5269 55.75 31.9982 54.3378C32.1829 54.1594 32.1638 54.1479 32.3205 53.9312C32.6389 53.489 32.8619 53.4902 33.0033 53.2761C33.23 53.1614 33.0631 53.2468 33.2045 53.141C33.2568 53.1015 33.3485 53.0212 33.3676 53.0072C34.0147 52.7281 34.5357 52.9562 35.4185 52.9091C35.4758 52.8058 35.5803 52.6503 35.6414 52.5522L36.0096 52.0806C36.0198 52.0704 36.035 52.0564 36.0465 52.0462C36.0567 52.036 36.072 52.022 36.0835 52.0118C37.0707 51.1145 37.4032 50.3702 37.8923 50.1918C38.021 50.1446 38.1662 50.123 38.3535 50.1089C38.6732 50.0847 39.0758 50.072 39.3879 50.0669C40.3891 50.0503 40.2617 50.6774 40.9649 50.8762C41.1649 50.88 41.9152 50.2491 42.3228 50.2683C42.8438 50.2937 42.3228 50.3817 43.1534 50.462C43.4872 50.4938 43.8031 50.4989 44.1355 50.5206L44.9445 51.855C44.9317 52.0386 44.8553 51.9557 45.0107 51.957C45.0655 52.2642 45.096 52.3011 45.2183 52.5229C45.7483 53.4762 45.5572 52.8249 45.7597 53.3641L45.9928 53.8764C46.0578 53.9924 46.1317 54.0727 46.1648 54.2626C46.1763 54.2792 46.1979 54.2804 46.203 54.3085C46.2081 54.3352 46.2323 54.3429 46.24 54.3531C46.2616 54.3849 46.31 54.45 46.3279 54.4831C46.417 54.6488 46.3877 54.7469 46.5916 55.0069C46.7381 55.1943 46.6858 55.0362 46.7546 55.2108C46.7724 55.6429 46.6871 56.0482 46.8323 56.4153C47.0081 56.8613 46.9597 57.0181 46.9482 57.6146C47.4272 57.6401 48.6463 57.3253 48.8845 57.3074L50.6705 56.8562L50.6972 56.9263C51.1061 56.9098 50.7393 56.9671 51.1023 56.7989C51.6335 56.5542 51.5927 56.8613 52.2437 56.6421C52.5227 56.5478 52.6157 56.6332 53.3481 56.3961L53.6781 56.2827C53.6959 56.2496 53.7277 56.2623 53.7532 56.2534L53.6105 56.6625C53.3456 57.0997 53.1851 56.8346 52.622 56.9939C51.9825 57.1749 51.2641 57.2284 50.4437 57.4565C50.1163 57.547 47.8769 57.8465 47.6438 58.0237C47.5113 58.1244 47.6081 58.039 47.5419 58.1384H47.0693C46.8272 59.0701 47.2947 60.4695 47.1266 61.6421C47.2909 61.86 47.2693 62.2003 47.2565 62.4628C47.4986 62.4769 47.7864 62.4323 48.0922 62.4246C48.5813 62.4131 48.5877 62.3341 48.8514 62.2411C48.7941 62.6336 48.6539 62.7254 49.2896 62.6298L49.1609 62.9166C49.1367 63.1944 49.5329 63.2887 49.6488 63.3614C49.6781 64.0649 49.5304 64.6767 49.5507 65.4325C49.5648 65.9283 49.5673 66.006 49.4055 66.3845C49.2578 66.735 49.2603 67.0154 49.4552 67.2614L49.4425 67.4207C49.5087 67.812 49.4985 67.9751 49.4705 68.3639C49.4348 68.8533 49.5393 68.8087 49.3151 69.1808C49.0552 69.6116 48.9074 70.0309 48.5673 70.3011C48.3457 70.3904 48.0183 70.4796 47.7342 70.3776C47.0922 70.1456 47.3737 70.2807 46.8603 70.3916C46.4068 70.4898 45.2247 70.3317 44.6655 70.347C44.2655 70.3585 44.0782 70.4808 43.7419 70.5076C43.3942 70.5356 42.9929 70.4961 42.6744 70.5739C41.8719 70.7701 42.0477 70.3024 41.3165 69.8053C41.2757 69.5861 41.0745 69.1235 40.6515 69.0432L38.3 68.4416C37.7904 68.3702 37.5968 68.2237 37.1217 68.1701C35.993 68.0427 36.2159 68.2887 35.9026 68.3447C35.6682 68.3868 35.5179 68.346 35.2695 68.4046L33.4466 68.6978C32.9383 68.7398 33.3217 68.7717 32.6033 68.866L32.3472 68.9323C32.3358 68.9132 32.3065 68.9476 32.2886 68.9603C32.0198 68.8877 32.044 68.9438 31.8224 69.0394C31.4389 69.0432 31.0453 69.1604 30.7294 69.0661C30.1192 68.8839 30.0262 68.4046 29.8415 68.1013C29.8301 68.0835 29.7995 68.0287 29.7893 68.0095C29.2364 67.0651 29.2938 67.0052 28.5524 67.2079C28.2123 67.3009 28.1715 67.1926 27.8594 67.2678C27.5231 67.4245 27.8301 67.5507 26.5575 67.5902L26.2085 67.7279L24.3741 68.0988C24.2569 68.165 24.1168 68.3307 24.0722 68.5219L23.9983 68.7093C23.8773 69.1222 23.7919 69.4969 23.4646 69.9239L22.9257 70.6096C22.806 70.8058 22.3831 71.2213 22.1729 71.2991C21.8213 71.4303 21.8353 71.2863 21.7308 71.647C21.5958 71.7273 21.4684 71.8841 21.4544 72.0829L19.1576 73.1892L16.5526 73.4798L14.4838 73.1981L13.4571 72.4806L13.2265 71.9108L14.7437 71.4584L16.7093 70.9601C17.3335 71.0416 17.2876 70.7944 17.657 70.774L17.8417 70.7485L17.8901 70.7128C18.0061 70.4056 18.4889 70.0896 18.8175 69.6766C18.9385 69.5249 18.8417 69.6677 18.9615 69.4459C19.0009 69.3733 19.0188 69.3299 19.0595 69.2637C19.0901 69.214 19.1169 69.1923 19.1971 69.0483C19.4379 68.62 19.6659 67.668 19.6863 67.2907C19.7118 66.8102 19.606 66.5846 19.5793 66.1385C19.5436 65.5319 19.2341 64.8373 18.9118 64.3236C18.7908 64.1312 18.6086 63.7539 18.4073 63.6188L18.4175 63.6137ZM56.3685 52.4107C56.5417 52.4362 57.92 51.7301 58.455 51.6817C58.6869 51.66 58.934 51.6702 59.1659 51.6639C59.5264 51.6524 59.4665 51.5874 59.7926 51.5785C60.3837 51.5619 60.7493 51.7263 61.3149 51.7543C61.6104 51.8461 62.0206 51.9239 62.4308 52.1405C62.6448 52.254 62.469 52.2871 62.8282 52.268L63.6995 53.0174C63.511 53.0696 63.2855 53.1754 63.1327 53.2137C62.7047 53.322 62.148 53.3755 61.3824 53.5935C61.1544 53.6585 60.9569 53.6432 60.7314 53.7005L59.6066 54.009C59.0398 54.2014 58.8181 54.3531 58.3429 54.91C57.2092 56.2394 57.7812 58.8534 58.3213 60.4134C58.1977 60.3395 57.1442 59.353 57.1926 58.0454C57.1646 57.8376 57.199 57.4858 57.2092 57.2641C57.2347 56.7275 57.25 56.1986 57.3098 55.6658C57.5926 55.4313 57.9646 55.142 58.0895 54.7189C58.2652 54.4946 58.1939 54.5188 58.4754 54.3085C58.7442 54.1096 58.6818 54.0332 58.8907 53.8713C59.0958 53.7133 60.2971 53.4839 60.7773 53.3526C61.0155 53.2876 61.0958 53.2137 61.3442 53.1894C61.6588 53.1589 62.4868 53.0365 62.6983 52.9333C62.6244 52.839 62.7174 52.9014 62.5747 52.8198C62.441 52.7434 62.5403 52.7944 62.404 52.7587L60.4015 52.2323C58.4882 52.0156 59.0054 52.2782 57.9124 52.5458C57.5111 52.644 56.9137 52.8109 56.585 53.034C56.5201 53.0773 56.4691 53.1245 56.4029 53.1856L54.6016 54.8922C54.3379 55.4466 52.2653 58.9184 54.3774 54.4245L56.2666 52.57C56.3685 52.4502 56.2665 52.5981 56.3672 52.4094L56.3685 52.4107ZM38.8146 68.0134C39.4019 68.0682 40.1675 68.4454 40.8655 68.2147C41.0694 67.1314 41.0273 65.9308 39.7968 66.0774C39.5751 66.1041 38.4083 65.4172 38.4401 65.9716C38.4809 66.6675 35.0707 67.733 34.0325 67.4475C34.0211 67.4602 33.5497 68.1281 33.5434 68.1153C33.5357 68.1013 33.5141 68.1523 33.5001 68.1714C34.1803 68.1969 33.9829 68.0057 35.1 67.9955C36.6389 67.7674 35.9459 67.6565 37.7064 67.7483C38.1446 67.7712 38.3395 67.8693 38.5981 67.9012C38.7076 68.007 38.4121 67.993 38.8159 68.0146L38.8146 68.0134Z" fill="#100C08"/>
</svg>
