<?xml version="1.0" encoding="UTF-8"?>
<svg id="Layer_1" width="74" height="77" data-name="Layer 1" xmlns="http://www.w3.org/2000/svg" viewBox="0 0 865.38 860.92">
  <defs>
    <style>
      .cls-1 {
        fill: #221f20;
      }

      .cls-1, .cls-2, .cls-3, .cls-4, .cls-5 {
        stroke-width: 0px;
      }

      .cls-2 {
        fill: #fff;
      }

      .cls-3 {
        fill: #fee600;
      }

      .cls-4, .cls-5 {
        fill: #1d1d1b;
      }

      .cls-5 {
        fill-rule: evenodd;
      }
    </style>
  </defs>
  <polygon class="cls-2" points="716.15 529.68 149.23 529.68 142.23 424.88 149.23 320.43 716.15 320.43 723.15 425.09 716.15 529.68"/>
  <g>
    <g>
      <path class="cls-4" d="m659.79,202.49l-11.72-65.19c-74.19,44.48-119.16,81.78-215.38-8.91-113.22,106.7-175.6,30.12-214.8,5.53l-12.3,68.57c-.58,3.14-8.42,47.94-5.2,107.03.16,3.63.41,7.34.66,11.14h89.45c-.66-7.1-1.07-14.03-1.32-20.71-.49-11.06-.49-21.46-.25-30.95,18.65,2.72,41.26,3.63,67.25.41,34.74-4.37,59.33-11.96,76.5-19.89,17.16,7.92,41.75,15.51,76.5,19.89,26.08,3.22,48.69,2.31,67.42-.41.25,9.41.25,19.89-.25,30.95-.25,6.68-.74,13.62-1.4,20.71h89.37c.25-3.8.49-7.51.66-11.14,3.22-59.09-4.62-103.89-5.2-107.03Z"/>
      <path class="cls-4" d="m620.67,304.73c2.56-53.89-4.7-94.32-4.7-94.32,0,0-36.23,22.86-101.25,14.77-65.03-8.17-82.02-28.14-82.02-28.14,0,0-17,19.97-82.03,28.14-65.03,8.09-101.25-14.77-101.25-14.77,0,0-7.26,40.43-4.7,94.32l-18.57,1.98c-2.81-55.04,4.46-96.71,5.03-99.6l4.87-27.15c68,41.42,142.68,41.59,197.64-16.01,55.54,60.98,131.87,54.79,195.57,16.59l4.95,26.57c.5,2.89,7.84,44.64,5.12,99.6l-18.65-1.98Z"/>
    </g>
    <g>
      <path class="cls-4" d="m540.38,529.2c-5.37,9.41-11.39,18.24-17.83,26.57-26.49,34.49-59.83,59.25-89.86,76.5-30.04-17.25-63.38-42-89.86-76.5-6.44-8.33-12.46-17.16-17.82-26.57h-98.69c1.4,3.55,2.89,7.1,4.37,10.65.58,1.4,1.15,2.72,1.82,4.04,42.25,94.65,121.14,149.44,180.39,178.82l19.81,9.82,19.8-9.82c59.25-29.38,138.14-84.17,180.39-178.82.66-1.32,1.24-2.64,1.82-4.04,1.48-3.55,2.97-7.1,4.37-10.65h-98.69Z"/>
      <path class="cls-4" d="m440.94,699.44l-8.25,4.13-8.25-4.13c-52.32-25.99-121.14-73.03-161.58-152.25l22.45,2.39c41.51,73.03,108.43,113.88,147.38,133.19,38.95-19.31,105.87-60.16,147.38-133.19l22.45-2.39c-40.44,79.22-109.26,126.26-161.57,152.25Z"/>
    </g>
    <path class="cls-3" d="m283.86,550.88c41.84,73.62,109.31,114.79,148.57,134.26,39.26-19.47,106.72-60.64,148.57-134.26,3.83-6.57,7.32-13.39,10.56-20.55h-318.26c3.25,7.15,6.74,13.97,10.56,20.55Z"/>
    <path class="cls-3" d="m617.18,209.71s-36.52,23.04-102.07,14.89c-65.55-8.24-82.68-28.37-82.68-28.37,0,0-17.14,20.13-82.69,28.37-65.55,8.15-102.07-14.89-102.07-14.89,0,0-7.32,40.76-4.74,95.08.25,5.24.58,10.56,1,16.05h376.99c.42-5.49.75-10.81,1-16.05,2.58-54.32-4.74-95.08-4.74-95.08Z"/>
    <polygon class="cls-4" points="716.15 529.2 716.15 534.9 632.88 543.89 602.52 547.19 580.07 549.58 557.05 552.06 522.55 555.77 432.69 565.51 342.82 555.77 308.33 552.06 285.31 549.58 262.86 547.19 232.49 543.89 149.23 534.9 149.23 529.2 716.15 529.2"/>
    <polygon class="cls-4" points="716.15 315.05 716.15 320.66 149.23 320.66 149.23 315.05 200.39 309.52 226.14 306.71 263.27 302.75 289.19 299.95 432.69 284.43 576.36 299.95 602.19 302.75 620.67 304.73 639.32 306.71 664.98 309.52 716.15 315.05"/>
    <g>
      <path class="cls-4" d="m182.23,457.07l26.65-106.6h79.95l-13.22,53.3h-53.3l-13.43,53.3h-26.65Zm43.33-66.73h26.65l6.72-26.65h-26.65l-6.72,26.65Z"/>
      <path class="cls-4" d="m388.28,350.47l-13.22,39.87h-13.43l13.43,13.43-13.43,53.3h-26.65l13.43-53.3h-26.65l-13.43,53.3h-26.65l26.65-106.6h79.95Zm-36.62,39.87l6.72-26.65h-26.65l-6.72,26.65h26.65Z"/>
      <path class="cls-4" d="m399.32,390.34h26.65l-16.68,66.73h-26.65l16.68-66.73Z"/>
      <path class="cls-4" d="m592.37,350.47l-26.65,106.6h-26.65l23.4-93.38h-26.65l-23.4,93.38h-26.65l23.4-93.38h-26.65l-23.4,93.38h-26.65l26.65-106.6h133.25Z"/>
      <path class="cls-4" d="m622.05,403.78l-10.18,39.86h26.87l6.5-26.65h26.65l-9.97,40.08h-79.95l26.65-106.6h79.95l-13.22,53.3h-53.3Zm3.25-13.43h26.65l6.72-26.65h-26.65l-6.72,26.65Z"/>
    </g>
    <polygon class="cls-3" points="429.22 379.13 402.57 379.13 409.29 352.47 435.94 352.47 429.22 379.13"/>
    <path class="cls-1" d="m430.78,381.13h-30.77l7.72-30.65h30.77l-7.72,30.65Zm-25.64-4h22.52l5.71-22.65h-22.52l-5.71,22.65Z"/>
    <g>
      <path class="cls-4" d="m246.18,478.78l10.22,10.66,16.27-10.66h6.98l-7.02,24.53h-6.98l4.75-16.58-16.27,10.73-10.22-10.73-4.75,16.58h-6.95l7.02-24.53h6.95Z"/>
      <path class="cls-4" d="m317.66,497.25c-.21.71-.59,1.42-1.15,2.13-.56.71-1.21,1.36-1.94,1.94-.73.58-1.51,1.06-2.34,1.43-.82.37-1.6.55-2.34.55h-20.88c-.73,0-1.41-.18-2.03-.55-.62-.37-1.13-.84-1.53-1.43-.4-.58-.68-1.23-.84-1.94-.16-.71-.14-1.42.07-2.13l3.58-12.42c.21-.71.59-1.42,1.13-2.13.55-.71,1.2-1.36,1.94-1.94.75-.58,1.53-1.06,2.36-1.43.83-.37,1.61-.55,2.34-.55h20.88c.73,0,1.41.18,2.03.55.62.37,1.13.84,1.53,1.43.4.58.68,1.23.84,1.94s.14,1.42-.07,2.13l-3.58,12.42Zm-3.78-11.01c.18-.6.16-1.05-.07-1.38-.23-.32-.56-.48-1-.48h-15.82c-.46,0-.89.16-1.31.48-.41.32-.71.78-.89,1.38l-2.75,9.6c-.18.6-.15,1.06.09,1.38.24.32.59.48,1.05.48h15.82c.44,0,.85-.16,1.26-.48.4-.32.69-.78.88-1.38l2.75-9.6Z"/>
      <path class="cls-4" d="m339.26,503.31l5.44-18.92h-13l1.58-5.61h32.99l-1.58,5.61h-13l-5.44,18.92h-6.98Z"/>
      <path class="cls-4" d="m404.27,497.25c-.21.71-.59,1.42-1.15,2.13-.56.71-1.21,1.36-1.94,1.94-.73.58-1.51,1.06-2.34,1.43-.82.37-1.6.55-2.34.55h-20.88c-.73,0-1.41-.18-2.03-.55-.62-.37-1.13-.84-1.53-1.43-.4-.58-.68-1.23-.84-1.94-.16-.71-.14-1.42.07-2.13l3.58-12.42c.21-.71.59-1.42,1.13-2.13.55-.71,1.2-1.36,1.94-1.94.75-.58,1.53-1.06,2.36-1.43.83-.37,1.61-.55,2.34-.55h20.88c.73,0,1.41.18,2.03.55.62.37,1.13.84,1.53,1.43.4.58.68,1.23.84,1.94s.14,1.42-.07,2.13l-3.58,12.42Zm-3.78-11.01c.18-.6.16-1.05-.07-1.38-.23-.32-.56-.48-1-.48h-15.82c-.46,0-.89.16-1.31.48-.41.32-.71.78-.89,1.38l-2.75,9.6c-.18.6-.15,1.06.09,1.38.24.32.59.48,1.05.48h15.82c.44,0,.85-.16,1.26-.48.4-.32.69-.78.88-1.38l2.75-9.6Z"/>
      <path class="cls-4" d="m436.88,478.78h25.42c.73,0,1.41.18,2.03.55.62.37,1.13.84,1.53,1.43.4.58.68,1.23.84,1.94s.14,1.42-.07,2.13l-1.27,4.4c-.21.71-.59,1.42-1.15,2.13-.56.71-1.21,1.36-1.94,1.94-.73.58-1.51,1.06-2.34,1.43-.83.37-1.61.55-2.34.55h-18.47l-2.3,8.01h-6.95l7.02-24.53Zm22.32,6.09c-.23-.32-.56-.48-1-.48h-15.96l-1.51,5.3h15.96c.44,0,.85-.16,1.26-.48.4-.32.69-.78.88-1.38l.45-1.58c.18-.6.16-1.05-.07-1.38Z"/>
      <path class="cls-4" d="m482.94,488.24h24.21l-1.62,5.61h-24.21l-.59,2c-.18.6-.15,1.06.09,1.38.24.32.59.48,1.05.48h22.63l-1.62,5.61h-25.18c-.73,0-1.41-.18-2.03-.55-.62-.37-1.13-.84-1.53-1.43-.4-.58-.68-1.23-.84-1.94-.16-.71-.14-1.42.07-2.13l5.3-18.47h31.23l-1.58,5.61h-24.29l-1.1,3.85Z"/>
      <path class="cls-4" d="m524.59,485.56l-3.12,10.98c-.14.53-.1.94.1,1.24.21.3.5.45.89.45h20.57l-1.45,5.09h-8.5l-.31,1.14c-.19.64-.54,1.29-1.07,1.94-.53.65-1.13,1.24-1.81,1.77-.68.53-1.39.96-2.15,1.29-.76.33-1.47.5-2.13.5h-4.27l1.45-5.09h3.13c.39,0,.76-.14,1.12-.41.36-.28.62-.65.81-1.14h-9.15c-.66,0-1.28-.17-1.84-.5s-1.03-.76-1.41-1.29c-.38-.53-.63-1.12-.76-1.77-.13-.65-.1-1.3.09-1.94l3.84-13.52c.18-.64.53-1.29,1.03-1.94.51-.65,1.1-1.24,1.77-1.77.68-.53,1.39-.96,2.15-1.29.76-.33,1.47-.5,2.13-.5h22.88l-1.48,5.09h-20.57c-.39,0-.77.15-1.15.45s-.65.71-.81,1.24Z"/>
      <path class="cls-4" d="m560.13,498.9l-1.27,4.4h-6.95l2.99-10.46,8.25-14.07h24.53l.21,14.07-2.99,10.46h-6.95l1.27-4.4h-19.09Zm20.67-5.57l-.17-8.94h-13.55l-5.37,8.94h19.09Z"/>
      <path class="cls-4" d="m621.9,495.7c.18-.6.16-1.05-.07-1.38-.23-.32-.56-.48-1-.48h-18.4c-.73,0-1.33-.18-1.79-.55-.46-.37-.79-.84-1-1.43-.21-.58-.31-1.23-.31-1.94s.1-1.42.31-2.13l.86-2.96c.21-.71.58-1.42,1.13-2.13s1.2-1.36,1.94-1.94c.74-.58,1.53-1.06,2.36-1.43.83-.37,1.61-.55,2.34-.55h25.42l-1.58,5.61h-22.88c-.46,0-.89.16-1.31.48-.41.32-.71.78-.89,1.38l-.04.14c-.18.6-.15,1.06.09,1.38.24.32.59.48,1.05.48h18.37c.73,0,1.33.18,1.79.55s.79.84,1,1.43c.21.58.3,1.23.29,1.94-.01.71-.12,1.42-.33,2.13l-.86,2.96c-.21.71-.59,1.42-1.15,2.13-.56.71-1.21,1.36-1.94,1.94-.73.58-1.51,1.06-2.34,1.43-.83.37-1.61.55-2.34.55h-25.42l1.62-5.61h22.91c.43,0,.85-.16,1.25-.48.4-.32.69-.78.88-1.38l.03-.14Z"/>
    </g>
    <g>
      <polygon class="cls-5" points="432.69 220.82 438.9 239.74 459.11 239.7 442.73 251.37 449.01 270.28 432.69 258.54 416.37 270.28 422.65 251.37 406.27 239.7 426.48 239.74 432.69 220.82"/>
      <polygon class="cls-5" points="493.85 237.89 497.93 250.28 511.15 250.25 500.42 257.9 504.54 270.28 493.85 262.59 483.17 270.28 487.28 257.9 476.56 250.25 489.78 250.28 493.85 237.89"/>
      <polygon class="cls-5" points="371.52 237.89 375.58 250.28 388.82 250.25 378.09 257.9 382.21 270.28 371.52 262.59 360.82 270.28 364.94 257.9 354.23 250.25 367.45 250.28 371.52 237.89"/>
    </g>
  </g>
</svg>